# 54 vertices
v 0.0000 0.0000 0.0000
v 1.0000 0.0000 0.0000
v 0.7071 0.0000 0.7071
v 0.0000 0.0000 1.0000
v -0.7071 0.0000 0.7071
v -1.0000 0.0000 0.0000
v -0.7071 0.0000 -0.7071
v -0.0000 0.0000 -1.0000
v 0.7071 0.0000 -0.7071
v 0.0000 6.0000 0.0000
v 0.8000 6.0000 0.0000
v 0.5657 6.0000 0.5657
v 0.0000 6.0000 0.8000
v -0.5657 6.0000 0.5657
v -0.8000 6.0000 0.0000
v -0.5657 6.0000 -0.5657
v -0.0000 6.0000 -0.8000
v 0.5657 6.0000 -0.5657
v 0.0000 6.0000 0.0000
v 0.8000 6.0000 0.0000
v 0.5657 6.0000 0.5657
v 0.0000 6.0000 0.8000
v -0.5657 6.0000 0.5657
v -0.8000 6.0000 0.0000
v -0.5657 6.0000 -0.5657
v -0.0000 6.0000 -0.8000
v 0.5657 6.0000 -0.5657
v 0.0000 10.0000 0.0000
v 0.8000 10.0000 0.0000
v 0.5657 10.0000 0.5657
v 0.0000 10.0000 0.8000
v -0.5657 10.0000 0.5657
v -0.8000 10.0000 0.0000
v -0.5657 10.0000 -0.5657
v -0.0000 10.0000 -0.8000
v 0.5657 10.0000 -0.5657
v 0.0000 10.0000 0.0000
v 0.6000 10.0000 0.0000
v 0.4243 10.0000 0.4243
v 0.0000 10.0000 0.6000
v -0.4243 10.0000 0.4243
v -0.6000 10.0000 0.0000
v -0.4243 10.0000 -0.4243
v -0.0000 10.0000 -0.6000
v 0.4243 10.0000 -0.4243
v 0.0000 13.0000 0.0000
v 0.6000 13.0000 0.0000
v 0.4243 13.0000 0.4243
v 0.0000 13.0000 0.6000
v -0.4243 13.0000 0.4243
v -0.6000 13.0000 0.0000
v -0.4243 13.0000 -0.4243
v -0.0000 13.0000 -0.6000
v 0.4243 13.0000 -0.4243
# 64 normales
vn 0.0000 1.0000 0.0000
vn 0.0000 1.0000 0.0000
vn 0.0000 1.0000 0.0000
vn 0.0000 1.0000 0.0000
vn 0.0000 1.0000 0.0000
vn 0.0000 1.0000 0.0000
vn 0.0000 1.0000 0.0000
vn 0.0000 1.0000 0.0000
vn 0.9234 0.0308 0.3825
vn 0.9234 0.0308 0.3825
vn 0.3825 0.0308 0.9234
vn 0.3825 0.0308 0.9234
vn -0.3825 0.0308 0.9234
vn -0.3825 0.0308 0.9234
vn -0.9234 0.0308 0.3825
vn -0.9234 0.0308 0.3825
vn -0.9234 0.0308 -0.3825
vn -0.9234 0.0308 -0.3825
vn -0.3825 0.0308 -0.9234
vn -0.3825 0.0308 -0.9234
vn 0.3825 0.0308 -0.9234
vn 0.3825 0.0308 -0.9234
vn 0.9234 0.0308 -0.3825
vn 0.9234 0.0308 -0.3825
vn 0.9239 0.0000 0.3827
vn 0.9239 0.0000 0.3827
vn 0.3827 0.0000 0.9239
vn 0.3827 0.0000 0.9239
vn -0.3827 0.0000 0.9239
vn -0.3827 0.0000 0.9239
vn -0.9239 0.0000 0.3827
vn -0.9239 0.0000 0.3827
vn -0.9239 0.0000 -0.3827
vn -0.9239 0.0000 -0.3827
vn -0.3827 0.0000 -0.9239
vn -0.3827 0.0000 -0.9239
vn 0.3827 0.0000 -0.9239
vn 0.3827 0.0000 -0.9239
vn 0.9239 0.0000 -0.3827
vn 0.9239 0.0000 -0.3827
vn 0.9239 0.0000 0.3827
vn 0.9239 0.0000 0.3827
vn 0.3827 0.0000 0.9239
vn 0.3827 0.0000 0.9239
vn -0.3827 0.0000 0.9239
vn -0.3827 0.0000 0.9239
vn -0.9239 0.0000 0.3827
vn -0.9239 0.0000 0.3827
vn -0.9239 0.0000 -0.3827
vn -0.9239 0.0000 -0.3827
vn -0.3827 0.0000 -0.9239
vn -0.3827 0.0000 -0.9239
vn 0.3827 0.0000 -0.9239
vn 0.3827 0.0000 -0.9239
vn 0.9239 0.0000 -0.3827
vn 0.9239 0.0000 -0.3827
vn 0.0000 -1.0000 0.0000
vn 0.0000 -1.0000 0.0000
vn 0.0000 -1.0000 0.0000
vn 0.0000 -1.0000 0.0000
vn 0.0000 -1.0000 0.0000
vn 0.0000 -1.0000 0.0000
vn 0.0000 -1.0000 0.0000
vn 0.0000 -1.0000 0.0000
# 64 caras
f 1//1 3//1 2//1
f 1//2 4//2 3//2
f 1//3 5//3 4//3
f 1//4 6//4 5//4
f 1//5 7//5 6//5
f 1//6 8//6 7//6
f 1//7 9//7 8//7
f 1//8 2//8 9//8
f 2//9 11//9 3//9
f 3//10 11//10 12//10
f 3//11 12//11 4//11
f 4//12 12//12 13//12
f 4//13 13//13 5//13
f 5//14 13//14 14//14
f 5//15 14//15 6//15
f 6//16 14//16 15//16
f 6//17 15//17 7//17
f 7//18 15//18 16//18
f 7//19 16//19 8//19
f 8//20 16//20 17//20
f 8//21 17//21 9//21
f 9//22 17//22 18//22
f 9//23 18//23 2//23
f 2//24 18//24 11//24
f 20//25 29//25 21//25
f 21//26 29//26 30//26
f 21//27 30//27 22//27
f 22//28 30//28 31//28
f 22//29 31//29 23//29
f 23//30 31//30 32//30
f 23//31 32//31 24//31
f 24//32 32//32 33//32
f 24//33 33//33 25//33
f 25//34 33//34 34//34
f 25//35 34//35 26//35
f 26//36 34//36 35//36
f 26//37 35//37 27//37
f 27//38 35//38 36//38
f 27//39 36//39 20//39
f 20//40 36//40 29//40
f 38//41 47//41 39//41
f 39//42 47//42 48//42
f 39//43 48//43 40//43
f 40//44 48//44 49//44
f 40//45 49//45 41//45
f 41//46 49//46 50//46
f 41//47 50//47 42//47
f 42//48 50//48 51//48
f 42//49 51//49 43//49
f 43//50 51//50 52//50
f 43//51 52//51 44//51
f 44//52 52//52 53//52
f 44//53 53//53 45//53
f 45//54 53//54 54//54
f 45//55 54//55 38//55
f 38//56 54//56 47//56
f 46//57 47//57 48//57
f 46//58 48//58 49//58
f 46//59 49//59 50//59
f 46//60 50//60 51//60
f 46//61 51//61 52//61
f 46//62 52//62 53//62
f 46//63 53//63 54//63
f 46//64 54//64 47//64